<svg height="200px" width="200px" version="1.1" id="Layer_1" xmlns="http://www.w3.org/2000/svg" xmlns:xlink="http://www.w3.org/1999/xlink" viewBox="0 0 448.131 448.131" xml:space="preserve" fill="#000000"><g id="SVGRepo_bgCarrier" stroke-width="0"></g><g id="SVGRepo_tracerCarrier" stroke-linecap="round" stroke-linejoin="round"></g><g id="SVGRepo_iconCarrier"> <g transform="translate(0 -1020.36)" shape-rendering="auto" image-rendering="auto" color-rendering="auto" color-interpolation="sRGB"> <g> <path style="fill:#EE746C;" d="M7.327,1195.009c-4.403,0.373-7.67,4.244-7.298,8.646c0.272,3.219,2.452,5.955,5.526,6.943 l42.756,13.701c5.524,1.771,11.208,2.715,17.008,2.715h317.126c5.801-0.002,11.603-0.943,17.126-2.715l42.638-13.701 c4.267-1.148,6.795-5.539,5.646-9.805c-1.149-4.268-5.539-6.795-9.806-5.646c-0.231,0.063-0.459,0.135-0.683,0.217l-42.638,13.701 c-3.945,1.264-8.14,1.887-12.283,1.887H65.318c-4.143-0.002-8.22-0.623-12.165-1.887l-42.638-13.701 c-1.027-0.336-2.112-0.461-3.189-0.367L7.327,1195.009z"></path> <path style="fill:#5A3392;" d="M7.327,1188.509c-4.403,0.373-7.67,4.244-7.298,8.646c0.272,3.219,2.452,5.955,5.526,6.943 l42.756,13.699c5.524,1.773,11.208,2.715,17.008,2.715h317.126c5.801,0,11.603-0.943,17.126-2.715l42.638-13.699 c4.264-1.16,6.78-5.557,5.62-9.82c-1.16-4.264-5.557-6.779-9.82-5.621c-0.217,0.061-0.431,0.129-0.642,0.205l-42.638,13.701 c-3.945,1.264-8.14,1.887-12.283,1.887H65.318c-4.143,0-8.22-0.623-12.165-1.887l-42.638-13.701 c-1.027-0.336-2.112-0.461-3.189-0.367L7.327,1188.509z"></path> </g> <path style="fill:#5A3392;" d="M319.964,1236.46c-17.579,0-32.008,14.43-32.008,32.008c0,17.578,14.43,32.008,32.008,32.008 c17.578,0,32.008-14.43,32.008-32.008C351.972,1250.888,337.543,1236.46,319.964,1236.46z"></path> <path style="fill:#29A3EC;" d="M319.964,1252.523c8.931,0,15.945,7.014,15.945,15.945c0,8.932-7.014,16.063-15.945,16.063 c-8.931,0-16.063-7.131-16.063-16.063S311.033,1252.523,319.964,1252.523z"></path> <g> <path style="fill:#5A3392;" d="M175.988,1252.523v15.945h95.906v-15.945H175.988z"></path> <path style="fill:#5A3392;" d="M127.917,1236.46c-17.578,0-32.008,14.43-32.008,32.008c0,17.578,14.43,32.008,32.008,32.008 c17.578,0,32.008-14.43,32.008-32.008C159.925,1250.888,145.496,1236.46,127.917,1236.46z"></path> </g> <path style="fill:#29A3EC;" d="M127.917,1252.523c8.931,0,16.063,7.014,16.063,15.945s-7.132,16.063-16.063,16.063 s-15.945-7.131-15.945-16.063C111.972,1259.536,118.986,1252.523,127.917,1252.523z"></path> <g> <path style="fill:#3CDEF6;" d="M319.935,1260.526c4.465,0,7.971,3.51,7.97,7.971c0,4.465-3.506,8.031-7.97,8.031 c-4.465,0-8.029-3.563-8.03-8.031C311.905,1264.034,315.47,1260.526,319.935,1260.526z"></path> <path style="fill:#3CDEF6;" d="M127.947,1260.526c4.465,0,8.03,3.51,8.03,7.971c0,4.465-3.565,8.031-8.03,8.031 c-4.465,0-7.97-3.563-7.97-8.031C119.976,1264.034,123.482,1260.526,127.947,1260.526z"></path> </g> </g> </g></svg>